<svg width="92" height="92" viewBox="0 0 92 92" fill="none" xmlns="http://www.w3.org/2000/svg">
<rect width="92" height="92" rx="46" fill="#008DE3"/>
<g clip-path="url(#clip0_2108_146)">
<path d="M11.9922 51.2158L12.2972 49.8779C12.6772 48.2431 13.0197 46.6002 13.4879 44.9895C13.7377 44.0883 14.1454 43.2385 14.692 42.4796C15.5447 41.3353 16.7671 40.5214 18.1517 40.1759C19.083 39.9293 20.0433 39.8096 21.0067 39.82C29.4084 39.82 37.8119 39.82 46.2173 39.82C46.3751 39.82 46.4019 39.8494 46.3671 40.0072C45.9122 42.0649 45.4761 44.1252 44.8981 46.1614C44.6243 47.1684 44.1431 48.1072 43.4854 48.9174C42.61 49.9544 41.421 50.6785 40.0979 50.9804C39.168 51.2063 38.2131 51.3133 37.2563 51.2988C28.8973 51.2988 20.5384 51.2988 12.1795 51.2988H11.9922V51.2158Z" fill="white"/>
<path d="M22.0547 73.138L22.6808 69.6328C23.0018 67.8275 23.3239 66.0196 23.6467 64.2091C23.7859 63.4064 23.9143 62.6304 24.0642 61.8384C24.0856 61.7153 24.131 61.6779 24.2568 61.6779L41.5098 61.6912C43.0216 61.6912 44.5307 61.6912 46.0425 61.6912C48.1258 61.7014 50.2054 61.5124 52.2528 61.1266C54.2247 60.7689 56.1235 60.0862 57.8718 59.1065C60.0624 57.8411 61.8266 55.952 62.9396 53.6802C63.6692 52.1689 64.2378 50.585 64.636 48.9548C65.0882 47.2317 65.4789 45.4951 65.7759 43.7398C66.0552 42.2663 66.1843 40.7683 66.1612 39.2687C66.1524 37.7656 65.8383 36.28 65.238 34.9019C64.4353 33.1467 63.0787 31.9292 61.3583 31.0971C60.0833 30.5077 58.7325 30.0989 57.3447 29.8823C55.6012 29.6003 53.837 29.466 52.0709 29.4809C46.6499 29.4809 41.2279 29.4765 35.8052 29.4676C33.8305 29.4676 31.8532 29.4676 29.8785 29.4676C29.726 29.4676 29.7045 29.4221 29.7286 29.2829C30.1942 26.7036 30.6571 24.1224 31.1173 21.5394C31.3207 20.4049 31.5231 19.2704 31.7247 18.1359C31.7408 18.045 31.7702 17.9888 31.8746 18.0075C31.9146 18.0102 31.9549 18.0102 31.9949 18.0075C39.7492 18.0075 47.5034 18.0075 55.2576 18.0075C57.2376 18.0075 59.2177 18.0289 61.1924 18.2189C63.9106 18.433 66.5873 19.0136 69.15 19.9447C71.2826 20.7193 73.2386 21.9129 74.9028 23.4552C76.6482 25.1247 77.9597 27.195 78.7236 29.4863C79.1832 30.8342 79.5033 32.2258 79.6789 33.639C79.879 35.212 79.955 36.7982 79.9063 38.3831C79.864 39.9043 79.7452 41.4225 79.5504 42.9318C79.307 44.8449 78.9859 46.7447 78.5578 48.623C77.7651 52.2895 76.4637 55.8272 74.6914 59.1332C73.3418 61.6315 71.6174 63.9082 69.578 65.8841C67.1882 68.157 64.368 69.9292 61.2833 71.0964C59.268 71.8771 57.1672 72.416 55.0249 72.7018C53.6522 72.8891 52.2716 73.0015 50.8882 73.0738C49.0821 73.1647 47.2787 73.17 45.4726 73.17H22.2607C22.1906 73.173 22.1206 73.1621 22.0547 73.138Z" fill="white"/>
</g>
<defs>
<clipPath id="clip0_2108_146">
<rect width="67.9257" height="55.1599" fill="white" transform="translate(12 18)"/>
</clipPath>
</defs>
</svg>
